# xmcd CD database file
#
# Track frame offsets:
#	150
#	16085
#	31578
#	48500
#	61341
#	73035
#	92672
#	100858
#	114754
#	139660
#	164617
#	186016
#
# Disc length: 3036 seconds
#
# Revision: 7
# Processed by: cddbd v1.5.2PL0 Copyright (c) Steve Scherf et al.
# Submitted via: CDex 1.51
#
DISCID=920bda0c
DTITLE=Gölä - Uf U Dervo
DYEAR=1998
DGENRE=Blues
TTITLE0=Keini Träne Meh
TTITLE1=Wie Dr Wind
TTITLE2=Schwan
TTITLE3=So Wie Du
TTITLE4=Uf U Dervo
TTITLE5=Hingedri
TTITLE6=Chume Nieme Hei
TTITLE7=Büetzer
TTITLE8=I Ha Me Wöue Vo Dir
TTITLE9=Es Isch E Brief Cho
TTITLE10=Flügu
TTITLE11=Indianer and Bonustrack
EXTD=YEAR: 1998
EXTT0=
EXTT1=
EXTT2=
EXTT3=
EXTT4=
EXTT5=
EXTT6=
EXTT7=
EXTT8=
EXTT9=
EXTT10=
EXTT11=
PLAYORDER=
